<?xml version="1.0" encoding="utf-8"?>
<!-- Generator: Adobe Illustrator 16.0.0, SVG Export Plug-In . SVG Version: 6.00 Build 0)  -->
<!DOCTYPE svg PUBLIC "-//W3C//DTD SVG 1.1//EN" "http://www.w3.org/Graphics/SVG/1.1/DTD/svg11.dtd">
<svg version="1.1" id="图层_1" xmlns="http://www.w3.org/2000/svg" xmlns:xlink="http://www.w3.org/1999/xlink" x="0px" y="0px"
	 width="150px" height="150px" viewBox="0 0 150 150" enable-background="new 0 0 150 150" xml:space="preserve">
<rect x="6.889" y="-44.5" fill="none" width="135.111" height="221.969"/>
<g>
	<path fill="#E7E7E7" d="M96.638,136.99c0-5.377-10.511-9.73-23.479-9.73c-12.966,0-23.478,4.354-23.478,9.73
		c0,5.378,10.512,9.731,23.478,9.731C86.127,146.722,96.638,142.368,96.638,136.99z"/>
	<path fill="#FFFFFF" d="M129.313,30.878c0,8.77-7.11,15.88-15.878,15.88c-8.772,0-15.88-7.11-15.88-15.88
		c0-8.771,7.107-15.88,15.88-15.88C122.202,14.999,129.313,22.108,129.313,30.878"/>
	<path fill="none" stroke="#040000" stroke-miterlimit="10" d="M129.313,30.878c0,8.77-7.11,15.88-15.878,15.88
		c-8.772,0-15.88-7.11-15.88-15.88c0-8.771,7.107-15.88,15.88-15.88C122.202,14.999,129.313,22.108,129.313,30.878z"/>
	<path fill="#646464" d="M125.747,31.082c0,6.801-5.514,12.315-12.314,12.315s-12.313-5.514-12.313-12.315
		c0-6.8,5.512-12.313,12.313-12.313S125.747,24.282,125.747,31.082"/>
	<circle fill="none" stroke="#040000" stroke-width="0.5" stroke-miterlimit="10" cx="113.434" cy="31.082" r="12.313"/>
	<path fill="#FFFFFF" d="M53.225,30.878c0,8.77-7.11,15.88-15.879,15.88c-8.77,0-15.879-7.11-15.879-15.88
		c0-8.771,7.109-15.88,15.879-15.88C46.114,14.999,53.225,22.108,53.225,30.878"/>
	<circle fill="none" stroke="#040000" stroke-miterlimit="10" cx="37.345" cy="30.878" r="15.879"/>
	<path fill="#646464" d="M49.659,31.082c0,6.801-5.513,12.315-12.313,12.315c-6.802,0-12.314-5.514-12.314-12.315
		c0-6.8,5.513-12.313,12.314-12.313C44.146,18.769,49.659,24.282,49.659,31.082"/>
	<circle fill="none" stroke="#040000" stroke-width="0.5" stroke-miterlimit="10" cx="37.345" cy="31.082" r="12.314"/>
	<g>
		<g>
			<path fill="#040000" d="M68.115,128.21L68.115,128.21c0.383-0.12,0.797,0.1,0.914,0.485l1.856,6.089
				c0.118,0.386-0.103,0.798-0.486,0.918c-0.388,0.116-0.798-0.103-0.917-0.49l-1.855-6.09
				C67.51,128.735,67.729,128.325,68.115,128.21"/>
			<path fill="#040000" d="M67.884,129.352L67.884,129.352c0.404-0.002,0.734,0.327,0.735,0.729l0.027,6.366
				c0,0.402-0.326,0.735-0.73,0.735c-0.403,0.003-0.732-0.327-0.734-0.729l-0.025-6.367
				C67.153,129.684,67.48,129.352,67.884,129.352"/>
			<path fill="#040000" d="M66.431,130.612L66.431,130.612c0.392,0.089,0.638,0.485,0.547,0.879l-1.436,6.201
				c-0.092,0.394-0.488,0.642-0.88,0.552c-0.394-0.092-0.641-0.486-0.549-0.881l1.438-6.201
				C65.641,130.769,66.035,130.521,66.431,130.612"/>
			<path fill="#040000" d="M64.121,129.897L64.121,129.897c0.386,0.117,0.606,0.531,0.486,0.916l-1.857,6.088
				c-0.118,0.389-0.53,0.605-0.916,0.491c-0.385-0.121-0.604-0.532-0.487-0.918l1.86-6.089
				C63.325,129.999,63.737,129.781,64.121,129.897"/>
			<path fill="#040000" d="M60.616,129.17L60.616,129.17c0.395,0.089,0.642,0.485,0.55,0.879l-0.996,4.297
				c-0.091,0.394-0.486,0.642-0.879,0.549c-0.394-0.089-0.64-0.487-0.548-0.878l0.996-4.297
				C59.828,129.326,60.225,129.077,60.616,129.17"/>
		</g>
		<path fill="#040000" d="M72.75,129.44c0.866-4.146-1.513-8.147-5.312-8.942c-3.795-0.788-7.575,1.931-8.439,6.078
			c-0.863,4.146,1.514,8.146,5.311,8.939C68.108,136.307,71.885,133.588,72.75,129.44"/>
	</g>
	<path fill="#FFFFFF" d="M76.345,130.429h-1.144c-9.122,0-16.588-7.466-16.588-16.587c0-9.122,7.466-16.586,16.588-16.586h1.144
		c9.123,0,16.587,7.464,16.587,16.586C92.932,122.963,85.468,130.429,76.345,130.429"/>
	<path fill="none" stroke="#040000" stroke-width="0.25" stroke-miterlimit="10" d="M76.345,130.429h-1.144
		c-9.122,0-16.588-7.466-16.588-16.587c0-9.122,7.466-16.586,16.588-16.586h1.144c9.123,0,16.587,7.464,16.587,16.586
		C92.932,122.963,85.468,130.429,76.345,130.429z"/>
	<path fill="#646464" d="M119.456,63.854c0,22.388-18.977,40.539-42.388,40.539c-23.411,0-42.389-18.15-42.389-40.539
		c0-22.39,18.979-40.54,42.389-40.54C100.479,23.314,119.456,41.464,119.456,63.854"/>
	
		<ellipse fill="none" stroke="#040000" stroke-width="0.5" stroke-miterlimit="10" cx="77.068" cy="63.854" rx="42.388" ry="40.539"/>
	<path fill="#FFFFFF" d="M68.244,71.119c0,6.785-5.5,12.287-12.287,12.287c-6.785,0-12.286-5.502-12.286-12.287
		c0-6.786,5.501-12.287,12.286-12.287C62.744,58.832,68.244,64.333,68.244,71.119"/>
	<circle fill="none" stroke="#040000" stroke-miterlimit="10" cx="55.958" cy="71.119" r="12.286"/>
	<path fill="#040000" d="M64.287,49.609c0,0.213-0.009,0.427-0.022,0.636c-0.327-3.694-3.916-6.602-8.307-6.602
		c-4.39,0-7.979,2.908-8.305,6.602c-0.015-0.209-0.023-0.423-0.023-0.636c0-4.603,3.725-8.329,8.328-8.329
		C60.562,41.281,64.287,45.006,64.287,49.609"/>
	<path fill="#040000" d="M103.915,49.609c0,0.213-0.009,0.427-0.021,0.636c-0.326-3.694-3.918-6.602-8.306-6.602
		c-4.392,0-7.979,2.908-8.308,6.602c-0.013-0.209-0.023-0.423-0.023-0.636c0-4.603,3.729-8.329,8.331-8.329
		S103.915,45.006,103.915,49.609"/>
	<path fill="#525652" d="M64.156,71.119c0,4.527-3.672,8.197-8.198,8.197c-4.528,0-8.197-3.67-8.197-8.197s3.669-8.196,8.197-8.196
		C60.484,62.923,64.156,66.592,64.156,71.119"/>
	<path fill="#040000" d="M60.894,71.115c0,3.04-2.463,5.504-5.504,5.504c-3.039,0-5.504-2.464-5.504-5.504s2.465-5.503,5.504-5.503
		C58.43,65.612,60.894,68.076,60.894,71.115"/>
	<path fill="#FFFFFF" d="M57.184,68.169c0,2.187-1.774,3.96-3.959,3.96c-2.186,0-3.958-1.773-3.958-3.96
		c0-2.185,1.772-3.958,3.958-3.958C55.41,64.212,57.184,65.985,57.184,68.169"/>
	<path fill="#040000" d="M82.039,85.451c0,2.188-2.977,3.96-6.646,3.96c-3.673,0-6.647-1.771-6.647-3.96
		c0-2.183,2.975-3.958,6.647-3.958C79.063,81.493,82.039,83.269,82.039,85.451"/>
	<ellipse fill="none" stroke="#F3C4C1" stroke-width="2" stroke-miterlimit="10" cx="76.226" cy="95.394" rx="4.293" ry="3.389"/>
	<path fill="#FFFFFF" d="M62.572,74.199c0,1.093-0.887,1.978-1.978,1.978c-1.095,0-1.98-0.885-1.98-1.978s0.885-1.979,1.98-1.979
		C61.686,72.22,62.572,73.106,62.572,74.199"/>
	<path fill="#FFFFFF" d="M83.299,71.119c0,6.785,5.503,12.287,12.289,12.287s12.285-5.502,12.285-12.287
		c0-6.786-5.499-12.287-12.285-12.287S83.299,64.333,83.299,71.119"/>
	<circle fill="none" stroke="#040000" stroke-miterlimit="10" cx="95.586" cy="71.119" r="12.287"/>
	<path fill="#525652" d="M87.39,71.119c0,4.527,3.671,8.197,8.198,8.197c4.525,0,8.195-3.67,8.195-8.197s-3.67-8.196-8.195-8.196
		C91.061,62.923,87.39,66.592,87.39,71.119"/>
	<path fill="#040000" d="M90.65,71.115c0,3.04,2.466,5.504,5.503,5.504c3.041,0,5.506-2.464,5.506-5.504s-2.465-5.503-5.506-5.503
		C93.116,65.612,90.65,68.076,90.65,71.115"/>
	<path fill="#FFFFFF" d="M94.362,68.169c0,2.187,1.771,3.96,3.958,3.96s3.959-1.773,3.959-3.96c0-2.185-1.771-3.958-3.959-3.958
		S94.362,65.985,94.362,68.169"/>
	<path fill="#FFFFFF" d="M88.972,74.199c0,1.093,0.887,1.978,1.979,1.978c1.093,0,1.981-0.885,1.981-1.978s-0.889-1.979-1.981-1.979
		C89.858,72.22,88.972,73.106,88.972,74.199"/>
	<path fill="#FFFFFF" d="M74.116,83.729c0,0.953-0.886,1.722-1.977,1.722c-1.096,0-1.98-0.769-1.98-1.722
		c0-0.949,0.885-1.72,1.98-1.72C73.23,82.01,74.116,82.78,74.116,83.729"/>
	<path fill="#646464" d="M80.726,123.366h-7.197c-3.315,0-6.029-2.712-6.029-6.032v-6.009c0-1.259,1.03-2.288,2.287-2.288h14.912
		c1.133,0,2.058,0.929,2.058,2.058v6.239C86.756,120.654,84.042,123.366,80.726,123.366"/>
	<path fill="none" stroke="#040000" stroke-width="0.5" stroke-miterlimit="10" d="M80.726,123.366h-7.197
		c-3.315,0-6.029-2.712-6.029-6.032v-6.009c0-1.259,1.03-2.288,2.287-2.288h14.912c1.133,0,2.058,0.929,2.058,2.058v6.239
		C86.756,120.654,84.042,123.366,80.726,123.366z"/>
	<g>
		<path fill="#040000" d="M89.781,128.418L89.781,128.418c0.297,0.273,0.762,0.256,1.036-0.037l4.32-4.68
			c0.271-0.295,0.253-0.763-0.041-1.035c-0.298-0.274-0.763-0.256-1.037,0.041l-4.319,4.676
			C89.467,127.68,89.485,128.146,89.781,128.418"/>
		<path fill="#040000" d="M90.074,127.637L90.074,127.637c0.379,0.139,0.801-0.057,0.938-0.438l2.179-5.982
			c0.138-0.379-0.061-0.803-0.439-0.94c-0.378-0.138-0.801,0.059-0.938,0.439l-2.178,5.982
			C89.498,127.078,89.695,127.501,90.074,127.637"/>
		<path fill="#040000" d="M89.381,126.211L89.381,126.211c0.402,0,0.734-0.33,0.734-0.733v-6.364c0-0.404-0.332-0.733-0.734-0.733
			c-0.404,0-0.733,0.329-0.733,0.733v6.364C88.647,125.881,88.977,126.211,89.381,126.211"/>
		<path fill="#040000" d="M86.973,126.388L86.973,126.388c0.401-0.029,0.708-0.382,0.681-0.786l-0.437-6.349
			c-0.028-0.401-0.38-0.71-0.781-0.683c-0.403,0.029-0.709,0.381-0.683,0.781l0.438,6.353
			C86.217,126.108,86.569,126.414,86.973,126.388"/>
		<path fill="#040000" d="M83.395,126.305L83.395,126.305c0.403,0,0.731-0.329,0.731-0.732v-4.409c0-0.404-0.328-0.733-0.731-0.733
			c-0.405,0-0.734,0.329-0.734,0.733v4.409C82.66,125.976,82.989,126.305,83.395,126.305"/>
		<path fill="#040000" d="M95.273,128.779c-0.092,4.236-3.313,7.599-7.189,7.512c-3.878-0.086-6.944-3.587-6.854-7.823
			c0.096-4.233,3.315-7.6,7.192-7.513C92.301,121.043,95.368,124.546,95.273,128.779"/>
	</g>
	<path fill="#FFFFFF" stroke="#040000" stroke-width="0.25" stroke-miterlimit="10" d="M86.766,27.405
		c0.337,0.015,9.182,1.811,8.907-9.15L92.2,22.027c0,0-0.529-8.201-1.155-9.376c-0.626-1.176-0.723,5.849-1.588,7.095
		c-0.864,1.249,0.88-9.492-4.254-12.751c0,0,0.43,5.763-0.676,7.878c0,0-1.195-8.365-4.564-10.198c0,0,0.803,4.9-2.035,8.091
		c0,0-0.128-4.938-1.278-6.476c0,0-2.027,6.334-5.092,8.435c0,0,0.05-2.768-0.873-3.281c0,0-1.725,3.981-5.308,5.586
		c0,0-0.961-1.265-1.344-1.785c-0.384-0.519-4.66,4.638-3.478,7.055c1.181,2.416,6.634,4.527,8.058,4.393
		c1.425-0.136-3.531,1.951-3.531,1.951l4.432-0.825l-0.773,2.266l3.649-1.602l-1.94,2.688l6.932-4.03l3.73,2.863l-1.068-1.87
		l4.448,1.879l-2.114-2.727c0,0,6.568,2.917,6.297,2.905C88.404,30.179,86.766,27.405,86.766,27.405"/>
	<path fill="none" stroke="#040000" stroke-width="0.5" stroke-miterlimit="10" d="M86.766,27.405
		c0.337,0.015,9.182,1.811,8.907-9.15L92.2,22.027c0,0-0.529-8.201-1.155-9.376c-0.626-1.176-0.723,5.849-1.588,7.095
		c-0.864,1.249,0.88-9.492-4.254-12.751c0,0,0.43,5.763-0.676,7.878c0,0-1.195-8.365-4.564-10.198c0,0,0.803,4.9-2.035,8.091
		c0,0-0.128-4.938-1.278-6.476c0,0-2.027,6.334-5.092,8.435c0,0,0.05-2.768-0.873-3.281c0,0-1.725,3.981-5.308,5.586
		c0,0-0.961-1.265-1.344-1.785c-0.384-0.519-4.66,4.638-3.478,7.055c1.181,2.416,6.634,4.527,8.058,4.393
		c1.425-0.136-3.531,1.951-3.531,1.951l4.432-0.825l-0.773,2.266l3.649-1.602l-1.94,2.688l6.932-4.03l3.73,2.863l-1.068-1.87
		l4.448,1.879l-2.114-2.727c0,0,6.568,2.917,6.297,2.905C88.404,30.179,86.766,27.405,86.766,27.405z"/>
	<path fill="#040000" d="M101.604,107.309c0.578-2.4-0.897-4.813-3.298-5.391c-2.397-0.578-4.813,0.9-5.39,3.299
		c-0.577,2.4,0.9,4.813,3.297,5.39C98.613,111.184,101.025,109.705,101.604,107.309"/>
	<path fill="#040000" d="M49.041,107.309c-0.578-2.4,0.897-4.813,3.298-5.391c2.397-0.578,4.812,0.9,5.39,3.299
		c0.577,2.4-0.9,4.813-3.298,5.39C52.031,111.184,49.618,109.705,49.041,107.309"/>
</g>
</svg>
