<?xml version="1.0" encoding="utf-8"?>
<!-- Generator: Adobe Illustrator 16.0.0, SVG Export Plug-In . SVG Version: 6.00 Build 0)  -->
<!DOCTYPE svg PUBLIC "-//W3C//DTD SVG 1.1//EN" "http://www.w3.org/Graphics/SVG/1.1/DTD/svg11.dtd">
<svg version="1.1" id="图层_1" xmlns="http://www.w3.org/2000/svg" xmlns:xlink="http://www.w3.org/1999/xlink" x="0px" y="0px"
	 width="150px" height="150px" viewBox="0 0 150 150" enable-background="new 0 0 150 150" xml:space="preserve">
<g>
	<path fill="#E7E7E7" d="M102.704,136.99c0-5.377-10.512-9.73-23.479-9.73c-12.966,0-23.479,4.354-23.479,9.73
		c0,5.378,10.512,9.731,23.479,9.731C92.192,146.722,102.704,142.368,102.704,136.99z"/>
	<path fill="#FFFFFF" d="M130.883,30.878c0,8.77-7.109,15.88-15.879,15.88c-8.771,0-15.879-7.11-15.879-15.88
		c0-8.771,7.107-15.88,15.879-15.88C123.773,14.999,130.883,22.108,130.883,30.878"/>
	<circle fill="none" stroke="#040000" stroke-miterlimit="10" cx="115.004" cy="30.878" r="15.879"/>
	<path fill="#646464" d="M127.316,31.082c0,6.801-5.512,12.315-12.313,12.315c-6.802,0-12.314-5.514-12.314-12.315
		c0-6.8,5.513-12.313,12.314-12.313C121.805,18.769,127.316,24.282,127.316,31.082"/>
	<circle fill="none" stroke="#040000" stroke-width="0.5" stroke-miterlimit="10" cx="115.003" cy="31.082" r="12.313"/>
	<path fill="#FFFFFF" d="M54.795,30.878c0,8.77-7.111,15.88-15.879,15.88c-8.77,0-15.88-7.11-15.88-15.88
		c0-8.771,7.11-15.88,15.88-15.88C47.684,14.999,54.795,22.108,54.795,30.878"/>
	<circle fill="none" stroke="#040000" stroke-miterlimit="10" cx="38.915" cy="30.878" r="15.88"/>
	<path fill="#646464" d="M51.229,31.082c0,6.801-5.513,12.315-12.313,12.315c-6.802,0-12.314-5.514-12.314-12.315
		c0-6.8,5.513-12.313,12.314-12.313C45.716,18.769,51.229,24.282,51.229,31.082"/>
	<circle fill="none" stroke="#040000" stroke-width="0.5" stroke-miterlimit="10" cx="38.915" cy="31.082" r="12.314"/>
	<g>
		<g>
			<path fill="#040000" d="M87.508,128.21L87.508,128.21c-0.383-0.12-0.797,0.1-0.913,0.485l-1.858,6.089
				c-0.117,0.386,0.103,0.798,0.488,0.918c0.387,0.116,0.797-0.103,0.916-0.49l1.855-6.09
				C88.113,128.735,87.895,128.325,87.508,128.21"/>
			<path fill="#040000" d="M87.74,129.352L87.74,129.352c-0.405-0.002-0.736,0.327-0.736,0.729l-0.027,6.366
				c0,0.402,0.326,0.735,0.73,0.735c0.402,0.003,0.732-0.327,0.734-0.729l0.025-6.367C88.47,129.684,88.144,129.352,87.74,129.352"
				/>
			<path fill="#040000" d="M89.192,130.612L89.192,130.612c-0.391,0.089-0.638,0.485-0.548,0.879l1.437,6.201
				c0.093,0.394,0.487,0.642,0.88,0.552c0.393-0.092,0.641-0.486,0.549-0.881l-1.438-6.201
				C89.982,130.769,89.587,130.521,89.192,130.612"/>
			<path fill="#040000" d="M91.502,129.897L91.502,129.897c-0.385,0.117-0.606,0.531-0.486,0.916l1.857,6.088
				c0.117,0.389,0.53,0.605,0.916,0.491c0.385-0.121,0.604-0.532,0.487-0.918l-1.86-6.089
				C92.299,129.999,91.887,129.781,91.502,129.897"/>
			<path fill="#040000" d="M95.006,129.17L95.006,129.17c-0.394,0.089-0.641,0.485-0.548,0.879l0.995,4.297
				c0.09,0.394,0.486,0.642,0.879,0.549c0.395-0.089,0.641-0.487,0.549-0.878l-0.996-4.297
				C95.795,129.326,95.398,129.077,95.006,129.17"/>
		</g>
		<path fill="#040000" d="M82.873,129.44c-0.865-4.146,1.512-8.147,5.311-8.942c3.796-0.788,7.576,1.931,8.44,6.078
			c0.862,4.146-1.515,8.146-5.312,8.939C87.515,136.307,83.738,133.588,82.873,129.44"/>
	</g>
	<path fill="#FFFFFF" d="M77.914,130.429h-1.143c-9.123,0-16.588-7.466-16.588-16.587c0-9.122,7.465-16.586,16.588-16.586h1.143
		c9.123,0,16.587,7.464,16.587,16.586C94.501,122.963,87.037,130.429,77.914,130.429"/>
	<path fill="none" stroke="#040000" stroke-width="0.25" stroke-miterlimit="10" d="M77.914,130.429h-1.143
		c-9.123,0-16.588-7.466-16.588-16.587c0-9.122,7.465-16.586,16.588-16.586h1.143c9.123,0,16.587,7.464,16.587,16.586
		C94.501,122.963,87.037,130.429,77.914,130.429z"/>
	<path fill="#646464" d="M121.026,63.854c0,22.388-18.977,40.539-42.387,40.539c-23.411,0-42.39-18.15-42.39-40.539
		c0-22.39,18.979-40.54,42.39-40.54C102.05,23.314,121.026,41.464,121.026,63.854"/>
	
		<ellipse fill="none" stroke="#040000" stroke-width="0.5" stroke-miterlimit="10" cx="78.638" cy="63.854" rx="42.388" ry="40.539"/>
	<path fill="#FFFFFF" d="M69.815,71.119c0,6.785-5.501,12.287-12.288,12.287c-6.785,0-12.287-5.502-12.287-12.287
		c0-6.786,5.502-12.287,12.287-12.287C64.314,58.832,69.815,64.333,69.815,71.119"/>
	<circle fill="none" stroke="#040000" stroke-miterlimit="10" cx="57.528" cy="71.119" r="12.287"/>
	<path fill="#040000" d="M65.856,49.609c0,0.213-0.008,0.427-0.021,0.636c-0.328-3.694-3.916-6.602-8.307-6.602
		c-4.39,0-7.979,2.908-8.305,6.602c-0.015-0.209-0.024-0.423-0.024-0.636c0-4.603,3.726-8.329,8.329-8.329
		C62.132,41.281,65.856,45.006,65.856,49.609"/>
	<path fill="#040000" d="M105.486,49.609c0,0.213-0.01,0.427-0.022,0.636c-0.327-3.694-3.918-6.602-8.306-6.602
		c-4.391,0-7.98,2.908-8.309,6.602c-0.012-0.209-0.021-0.423-0.021-0.636c0-4.603,3.728-8.329,8.33-8.329
		C101.76,41.281,105.486,45.006,105.486,49.609"/>
	<path fill="#525652" d="M65.726,71.119c0,4.527-3.672,8.197-8.197,8.197c-4.528,0-8.197-3.67-8.197-8.197s3.669-8.196,8.197-8.196
		C62.054,62.923,65.726,66.592,65.726,71.119"/>
	<path fill="#040000" d="M62.463,71.115c0,3.04-2.462,5.504-5.503,5.504c-3.039,0-5.503-2.464-5.503-5.504s2.465-5.503,5.503-5.503
		C60,65.612,62.463,68.076,62.463,71.115"/>
	<path fill="#FFFFFF" d="M58.754,68.169c0,2.187-1.774,3.96-3.959,3.96c-2.187,0-3.958-1.773-3.958-3.96
		c0-2.185,1.771-3.958,3.958-3.958C56.98,64.212,58.754,65.985,58.754,68.169"/>
	<path fill="#040000" d="M83.609,85.451c0,2.188-2.976,3.96-6.646,3.96c-3.671,0-6.646-1.771-6.646-3.96
		c0-2.183,2.975-3.958,6.646-3.958C80.634,81.493,83.609,83.269,83.609,85.451"/>
	<ellipse fill="none" stroke="#F3C4C1" stroke-width="2" stroke-miterlimit="10" cx="77.797" cy="95.394" rx="4.293" ry="3.389"/>
	<path fill="#FFFFFF" d="M64.143,74.199c0,1.093-0.887,1.978-1.978,1.978c-1.095,0-1.979-0.885-1.979-1.978s0.885-1.979,1.979-1.979
		C63.256,72.22,64.143,73.106,64.143,74.199"/>
	<path fill="#FFFFFF" d="M84.869,71.119c0,6.785,5.502,12.287,12.289,12.287c6.785,0,12.285-5.502,12.285-12.287
		c0-6.786-5.5-12.287-12.285-12.287C90.371,58.832,84.869,64.333,84.869,71.119"/>
	<circle fill="none" stroke="#040000" stroke-miterlimit="10" cx="97.156" cy="71.119" r="12.287"/>
	<path fill="#525652" d="M88.96,71.119c0,4.527,3.671,8.197,8.198,8.197c4.525,0,8.195-3.67,8.195-8.197s-3.67-8.196-8.195-8.196
		C92.631,62.923,88.96,66.592,88.96,71.119"/>
	<path fill="#040000" d="M92.221,71.115c0,3.04,2.465,5.504,5.504,5.504s5.505-2.464,5.505-5.504s-2.466-5.503-5.505-5.503
		S92.221,68.076,92.221,71.115"/>
	<path fill="#FFFFFF" d="M95.932,68.169c0,2.187,1.771,3.96,3.958,3.96c2.188,0,3.96-1.773,3.96-3.96
		c0-2.185-1.771-3.958-3.96-3.958C97.702,64.212,95.932,65.985,95.932,68.169"/>
	<path fill="#FFFFFF" d="M90.542,74.199c0,1.093,0.886,1.978,1.979,1.978s1.98-0.885,1.98-1.978s-0.888-1.979-1.98-1.979
		S90.542,73.106,90.542,74.199"/>
	<path fill="#FFFFFF" d="M75.688,83.729c0,0.953-0.886,1.722-1.977,1.722c-1.096,0-1.981-0.769-1.981-1.722
		c0-0.949,0.885-1.72,1.981-1.72C74.802,82.01,75.688,82.78,75.688,83.729"/>
	<path fill="#646464" d="M82.296,123.366H75.1c-3.317,0-6.031-2.712-6.031-6.032v-6.009c0-1.259,1.03-2.288,2.288-2.288h14.913
		c1.132,0,2.057,0.929,2.057,2.058v6.239C88.325,120.654,85.613,123.366,82.296,123.366"/>
	<path fill="none" stroke="#040000" stroke-width="0.5" stroke-miterlimit="10" d="M82.296,123.366H75.1
		c-3.317,0-6.031-2.712-6.031-6.032v-6.009c0-1.259,1.03-2.288,2.288-2.288h14.913c1.132,0,2.057,0.929,2.057,2.058v6.239
		C88.325,120.654,85.613,123.366,82.296,123.366z"/>
	<g>
		<path fill="#040000" d="M65.841,128.418L65.841,128.418c-0.296,0.273-0.762,0.256-1.035-0.037l-4.32-4.68
			c-0.271-0.295-0.253-0.763,0.042-1.035c0.296-0.274,0.762-0.256,1.036,0.041l4.32,4.676
			C66.156,127.68,66.138,128.146,65.841,128.418"/>
		<path fill="#040000" d="M65.549,127.637L65.549,127.637c-0.379,0.139-0.802-0.057-0.94-0.438l-2.177-5.982
			c-0.138-0.379,0.059-0.803,0.439-0.94c0.377-0.138,0.8,0.059,0.938,0.439l2.177,5.982
			C66.125,127.078,65.928,127.501,65.549,127.637"/>
		<path fill="#040000" d="M66.242,126.211L66.242,126.211c-0.403,0-0.733-0.33-0.733-0.733v-6.364c0-0.404,0.33-0.733,0.733-0.733
			c0.404,0,0.734,0.329,0.734,0.733v6.364C66.976,125.881,66.646,126.211,66.242,126.211"/>
		<path fill="#040000" d="M68.651,126.388L68.651,126.388c-0.402-0.029-0.709-0.382-0.681-0.786l0.437-6.349
			c0.027-0.401,0.379-0.71,0.782-0.683c0.402,0.029,0.708,0.381,0.681,0.781l-0.437,6.353
			C69.406,126.108,69.053,126.414,68.651,126.388"/>
		<path fill="#040000" d="M72.229,126.305L72.229,126.305c-0.404,0-0.733-0.329-0.733-0.732v-4.409c0-0.404,0.33-0.733,0.733-0.733
			c0.404,0,0.733,0.329,0.733,0.733v4.409C72.963,125.976,72.634,126.305,72.229,126.305"/>
		<path fill="#040000" d="M60.349,128.779c0.093,4.236,3.313,7.599,7.192,7.512c3.877-0.086,6.944-3.587,6.852-7.823
			c-0.095-4.233-3.315-7.6-7.192-7.513C63.322,121.043,60.255,124.546,60.349,128.779"/>
	</g>
	<path fill="#FFFFFF" stroke="#040000" stroke-width="0.25" stroke-miterlimit="10" d="M88.336,27.405
		c0.337,0.015,9.182,1.811,8.908-9.15l-3.474,3.771c0,0-0.53-8.201-1.155-9.376c-0.625-1.176-0.723,5.849-1.588,7.095
		c-0.865,1.249,0.879-9.492-4.254-12.751c0,0,0.43,5.763-0.676,7.878c0,0-1.196-8.365-4.565-10.198c0,0,0.805,4.9-2.034,8.091
		c0,0-0.129-4.938-1.279-6.476c0,0-2.027,6.334-5.091,8.435c0,0,0.051-2.768-0.873-3.281c0,0-1.726,3.981-5.308,5.586
		c0,0-0.961-1.265-1.343-1.785c-0.384-0.519-4.66,4.638-3.479,7.055c1.181,2.416,6.634,4.527,8.059,4.393
		c1.424-0.136-3.532,1.951-3.532,1.951l4.431-0.825l-0.772,2.266l3.65-1.602l-1.94,2.688l6.932-4.03l3.73,2.863l-1.068-1.87
		l4.449,1.879l-2.115-2.727c0,0,6.568,2.917,6.297,2.905C89.975,30.179,88.336,27.405,88.336,27.405"/>
	<path fill="none" stroke="#040000" stroke-width="0.5" stroke-miterlimit="10" d="M88.336,27.405
		c0.337,0.015,9.182,1.811,8.908-9.15l-3.474,3.771c0,0-0.53-8.201-1.155-9.376c-0.625-1.176-0.723,5.849-1.588,7.095
		c-0.865,1.249,0.879-9.492-4.254-12.751c0,0,0.43,5.763-0.676,7.878c0,0-1.196-8.365-4.565-10.198c0,0,0.805,4.9-2.034,8.091
		c0,0-0.129-4.938-1.279-6.476c0,0-2.027,6.334-5.091,8.435c0,0,0.051-2.768-0.873-3.281c0,0-1.726,3.981-5.308,5.586
		c0,0-0.961-1.265-1.343-1.785c-0.384-0.519-4.66,4.638-3.479,7.055c1.181,2.416,6.634,4.527,8.059,4.393
		c1.424-0.136-3.532,1.951-3.532,1.951l4.431-0.825l-0.772,2.266l3.65-1.602l-1.94,2.688l6.932-4.03l3.73,2.863l-1.068-1.87
		l4.449,1.879l-2.115-2.727c0,0,6.568,2.917,6.297,2.905C89.975,30.179,88.336,27.405,88.336,27.405z"/>
	<rect x="8.459" y="-44.5" fill="none" width="135.111" height="221.969"/>
	<rect x="8.459" y="-44.5" fill="none" width="135.111" height="221.969"/>
	<g>
		<path fill="#040000" d="M99.377,108.57L99.377,108.57c0.225,0.334,0.686,0.423,1.016,0.194l5.264-3.584
			c0.332-0.228,0.419-0.685,0.193-1.021c-0.229-0.334-0.685-0.42-1.021-0.192l-5.26,3.586
			C99.236,107.782,99.148,108.24,99.377,108.57"/>
		<path fill="#040000" d="M100.063,106.732L100.063,106.732c0.358,0.187,0.802,0.044,0.986-0.314l2.92-5.657
			c0.184-0.358,0.045-0.803-0.315-0.986c-0.357-0.186-0.801-0.042-0.985,0.314l-2.922,5.658
			C99.562,106.104,99.702,106.55,100.063,106.732"/>
		<path fill="#040000" d="M99.402,105.043L99.402,105.043c0.396,0.048,0.765-0.241,0.811-0.644l0.74-6.321
			c0.047-0.401-0.242-0.77-0.641-0.817c-0.402-0.045-0.768,0.243-0.814,0.644l-0.739,6.324
			C98.71,104.629,98.999,104.995,99.402,105.043"/>
		<path fill="#040000" d="M98.334,105.82L98.334,105.82c0.389-0.109,0.617-0.519,0.505-0.906l-1.725-6.126
			c-0.108-0.391-0.516-0.617-0.903-0.51c-0.389,0.11-0.616,0.518-0.509,0.906l1.728,6.129
			C97.54,105.701,97.947,105.929,98.334,105.82"/>
		<path fill="#040000" d="M96.695,106.474L96.695,106.474c0.219-0.34,0.115-0.795-0.225-1.011l-3.729-2.358
			c-0.342-0.216-0.797-0.114-1.014,0.227s-0.111,0.797,0.229,1.01l3.728,2.359C96.023,106.917,96.48,106.813,96.695,106.474"/>
	</g>
	<path fill="#040000" d="M103.174,107.309c0.578-2.4-0.898-4.813-3.298-5.391c-2.397-0.578-4.812,0.9-5.39,3.299
		c-0.578,2.4,0.899,4.813,3.297,5.39C100.184,111.184,102.596,109.705,103.174,107.309"/>
	<g>
		<path fill="#040000" d="M54.407,108.57L54.407,108.57c-0.224,0.334-0.685,0.423-1.015,0.194l-5.264-3.584
			c-0.332-0.228-0.418-0.685-0.193-1.021c0.229-0.334,0.685-0.42,1.021-0.192l5.26,3.586
			C54.549,107.782,54.636,108.24,54.407,108.57"/>
		<path fill="#040000" d="M53.722,106.732L53.722,106.732c-0.358,0.187-0.802,0.044-0.987-0.314l-2.919-5.657
			c-0.184-0.358-0.044-0.803,0.315-0.986c0.358-0.186,0.801-0.042,0.986,0.314l2.921,5.658
			C54.223,106.104,54.082,106.55,53.722,106.732"/>
		<path fill="#040000" d="M54.383,105.043L54.383,105.043c-0.397,0.048-0.766-0.241-0.811-0.644l-0.74-6.321
			c-0.048-0.401,0.242-0.77,0.64-0.817c0.402-0.045,0.768,0.243,0.815,0.644l0.739,6.324
			C55.074,104.629,54.786,104.995,54.383,105.043"/>
		<path fill="#040000" d="M55.451,105.82L55.451,105.82c-0.388-0.109-0.619-0.519-0.506-0.906l1.725-6.126
			c0.109-0.391,0.516-0.617,0.904-0.51c0.388,0.11,0.615,0.518,0.508,0.906l-1.727,6.129
			C56.245,105.701,55.838,105.929,55.451,105.82"/>
		<path fill="#040000" d="M57.089,106.474L57.089,106.474c-0.218-0.34-0.115-0.795,0.226-1.011l3.729-2.358
			c0.34-0.216,0.796-0.114,1.012,0.227c0.217,0.341,0.112,0.797-0.229,1.01l-3.728,2.359
			C57.761,106.917,57.304,106.813,57.089,106.474"/>
	</g>
	<path fill="#040000" d="M50.611,107.309c-0.578-2.4,0.897-4.813,3.298-5.391c2.398-0.578,4.812,0.9,5.39,3.299
		c0.577,2.4-0.9,4.813-3.298,5.39C53.601,111.184,51.188,109.705,50.611,107.309"/>
</g>
</svg>
